<svg width="25" height="24" viewBox="0 0 25 24" fill="none" xmlns="http://www.w3.org/2000/svg">
<path fill-rule="evenodd" clip-rule="evenodd" d="M17.2071 13.293C17.5981 13.684 17.5981 14.316 17.2071 14.707C17.0121 14.902 16.7561 15 16.5001 15C16.2441 15 15.9881 14.902 15.7931 14.707L14.5001 13.414L13.2071 14.707C13.0121 14.902 12.7561 15 12.5001 15C12.2441 15 11.9881 14.902 11.7931 14.707C11.4021 14.316 11.4021 13.684 11.7931 13.293L13.0861 12L11.7931 10.707C11.4021 10.316 11.4021 9.684 11.7931 9.293C12.1841 8.902 12.8161 8.902 13.2071 9.293L14.5001 10.586L15.7931 9.293C16.1841 8.902 16.8161 8.902 17.2071 9.293C17.5981 9.684 17.5981 10.316 17.2071 10.707L15.9141 12L17.2071 13.293ZM20.6411 4H10.8701C10.1221 4 9.40507 4.277 8.85207 4.781C8.81307 4.815 8.77807 4.854 8.74607 4.894L2.72207 12.373C2.39007 12.785 2.43607 13.384 2.82707 13.74L8.85207 19.219C9.40507 19.723 10.1221 20 10.8701 20H20.6411C21.6661 20 22.5001 19.185 22.5001 18.182V5.818C22.5001 4.815 21.6661 4 20.6411 4Z" fill="black"/>
<mask id="mask0_2048_11959" style="mask-type:luminance" maskUnits="userSpaceOnUse" x="2" y="4" width="21" height="16">
<path fill-rule="evenodd" clip-rule="evenodd" d="M17.2071 13.293C17.5981 13.684 17.5981 14.316 17.2071 14.707C17.0121 14.902 16.7561 15 16.5001 15C16.2441 15 15.9881 14.902 15.7931 14.707L14.5001 13.414L13.2071 14.707C13.0121 14.902 12.7561 15 12.5001 15C12.2441 15 11.9881 14.902 11.7931 14.707C11.4021 14.316 11.4021 13.684 11.7931 13.293L13.0861 12L11.7931 10.707C11.4021 10.316 11.4021 9.684 11.7931 9.293C12.1841 8.902 12.8161 8.902 13.2071 9.293L14.5001 10.586L15.7931 9.293C16.1841 8.902 16.8161 8.902 17.2071 9.293C17.5981 9.684 17.5981 10.316 17.2071 10.707L15.9141 12L17.2071 13.293ZM20.6411 4H10.8701C10.1221 4 9.40507 4.277 8.85207 4.781C8.81307 4.815 8.77807 4.854 8.74607 4.894L2.72207 12.373C2.39007 12.785 2.43607 13.384 2.82707 13.74L8.85207 19.219C9.40507 19.723 10.1221 20 10.8701 20H20.6411C21.6661 20 22.5001 19.185 22.5001 18.182V5.818C22.5001 4.815 21.6661 4 20.6411 4Z" fill="white"/>
</mask>
<g mask="url(#mask0_2048_11959)">
<rect x="0.5" width="24" height="24" fill="black"/>
</g>
</svg>
