<svg width="24" height="25" viewBox="0 0 24 25" fill="none" xmlns="http://www.w3.org/2000/svg">
<path fill-rule="evenodd" clip-rule="evenodd" d="M16.707 13.793C17.098 14.184 17.098 14.816 16.707 15.207C16.512 15.402 16.256 15.5 16 15.5C15.744 15.5 15.488 15.402 15.293 15.207L14 13.914L12.707 15.207C12.512 15.402 12.256 15.5 12 15.5C11.744 15.5 11.488 15.402 11.293 15.207C10.902 14.816 10.902 14.184 11.293 13.793L12.586 12.5L11.293 11.207C10.902 10.816 10.902 10.184 11.293 9.793C11.684 9.402 12.316 9.402 12.707 9.793L14 11.086L15.293 9.793C15.684 9.402 16.316 9.402 16.707 9.793C17.098 10.184 17.098 10.816 16.707 11.207L15.414 12.5L16.707 13.793ZM20.141 4.5H10.37C9.622 4.5 8.905 4.777 8.352 5.281C8.313 5.315 8.278 5.354 8.246 5.394L2.222 12.873C1.89 13.285 1.936 13.884 2.327 14.24L8.352 19.719C8.905 20.223 9.622 20.5 10.37 20.5H20.141C21.166 20.5 22 19.685 22 18.682V6.318C22 5.315 21.166 4.5 20.141 4.5Z" fill="#99A0A8"/>
<mask id="mask0_1317_9747" style="mask-type:luminance" maskUnits="userSpaceOnUse" x="2" y="4" width="20" height="17">
<path fill-rule="evenodd" clip-rule="evenodd" d="M16.707 13.793C17.098 14.184 17.098 14.816 16.707 15.207C16.512 15.402 16.256 15.5 16 15.5C15.744 15.5 15.488 15.402 15.293 15.207L14 13.914L12.707 15.207C12.512 15.402 12.256 15.5 12 15.5C11.744 15.5 11.488 15.402 11.293 15.207C10.902 14.816 10.902 14.184 11.293 13.793L12.586 12.5L11.293 11.207C10.902 10.816 10.902 10.184 11.293 9.793C11.684 9.402 12.316 9.402 12.707 9.793L14 11.086L15.293 9.793C15.684 9.402 16.316 9.402 16.707 9.793C17.098 10.184 17.098 10.816 16.707 11.207L15.414 12.5L16.707 13.793ZM20.141 4.5H10.37C9.622 4.5 8.905 4.777 8.352 5.281C8.313 5.315 8.278 5.354 8.246 5.394L2.222 12.873C1.89 13.285 1.936 13.884 2.327 14.24L8.352 19.719C8.905 20.223 9.622 20.5 10.37 20.5H20.141C21.166 20.5 22 19.685 22 18.682V6.318C22 5.315 21.166 4.5 20.141 4.5Z" fill="white"/>
</mask>
<g mask="url(#mask0_1317_9747)">
<rect y="0.5" width="24" height="24" fill="#99A0A8"/>
</g>
</svg>
