<svg width="20" height="20" viewBox="0 0 20 20" fill="none" xmlns="http://www.w3.org/2000/svg">
<g clip-path="url(#clip0_2208_14775)">
<path fill-rule="evenodd" clip-rule="evenodd" d="M0.833984 10.0002C0.833984 4.93755 4.93804 0.833496 10.0006 0.833496C15.0633 0.833496 19.1673 4.93755 19.1673 10.0002C19.1673 15.0628 15.0633 19.1668 10.0006 19.1668C4.93804 19.1668 0.833984 15.0628 0.833984 10.0002ZM13.8971 6.88587C14.2364 7.19687 14.2593 7.724 13.9483 8.06327L9.36495 13.0633C9.20711 13.2355 8.98424 13.3335 8.75065 13.3335C8.51707 13.3335 8.2942 13.2355 8.13636 13.0633L6.05303 10.7905C5.74203 10.4513 5.76495 9.92414 6.10422 9.61314C6.44348 9.30215 6.97062 9.32507 7.28162 9.66434L8.75065 11.2669L12.7197 6.93706C13.0307 6.5978 13.5578 6.57488 13.8971 6.88587Z" fill="white"/>
</g>
<defs>
<clipPath id="clip0_2208_14775">
<rect width="20" height="20" fill="white"/>
</clipPath>
</defs>
</svg>
