<svg width="21" height="20" viewBox="0 0 21 20" fill="none" xmlns="http://www.w3.org/2000/svg">
<path d="M10.6673 1.6665C6.07565 1.6665 2.33398 5.40817 2.33398 9.99984C2.33398 14.5915 6.07565 18.3332 10.6673 18.3332C15.259 18.3332 19.0007 14.5915 19.0007 9.99984C19.0007 5.40817 15.259 1.6665 10.6673 1.6665ZM13.4673 11.9165C13.709 12.1582 13.709 12.5582 13.4673 12.7998C13.3423 12.9248 13.184 12.9832 13.0257 12.9832C12.8673 12.9832 12.709 12.9248 12.584 12.7998L10.6673 10.8832L8.75065 12.7998C8.62565 12.9248 8.46732 12.9832 8.30898 12.9832C8.15065 12.9832 7.99232 12.9248 7.86732 12.7998C7.62565 12.5582 7.62565 12.1582 7.86732 11.9165L9.78398 9.99984L7.86732 8.08317C7.62565 7.8415 7.62565 7.4415 7.86732 7.19984C8.10898 6.95817 8.50898 6.95817 8.75065 7.19984L10.6673 9.1165L12.584 7.19984C12.8257 6.95817 13.2257 6.95817 13.4673 7.19984C13.709 7.4415 13.709 7.8415 13.4673 8.08317L11.5507 9.99984L13.4673 11.9165Z" fill="white"/>
</svg>
