<svg width="24" height="25" viewBox="0 0 24 25" fill="none" xmlns="http://www.w3.org/2000/svg">
<path fill-rule="evenodd" clip-rule="evenodd" d="M20 9.5H4V8.5C4 7.949 4.448 7.5 5 7.5H19C19.552 7.5 20 7.949 20 8.5V9.5ZM17 15.5H15C14.45 15.5 14 15.05 14 14.5C14 13.95 14.45 13.5 15 13.5H17C17.55 13.5 18 13.95 18 14.5C18 15.05 17.55 15.5 17 15.5ZM11 15.5H7C6.45 15.5 6 15.05 6 14.5C6 13.95 6.45 13.5 7 13.5H11C11.55 13.5 12 13.95 12 14.5C12 15.05 11.55 15.5 11 15.5ZM19 5.5H5C3.346 5.5 2 6.846 2 8.5V16.5C2 18.154 3.346 19.5 5 19.5H19C20.654 19.5 22 18.154 22 16.5V8.5C22 6.846 20.654 5.5 19 5.5Z" fill="#99A0A8"/>
<mask id="mask0_1317_9743" style="mask-type:luminance" maskUnits="userSpaceOnUse" x="2" y="5" width="20" height="15">
<path fill-rule="evenodd" clip-rule="evenodd" d="M20 9.5H4V8.5C4 7.949 4.448 7.5 5 7.5H19C19.552 7.5 20 7.949 20 8.5V9.5ZM17 15.5H15C14.45 15.5 14 15.05 14 14.5C14 13.95 14.45 13.5 15 13.5H17C17.55 13.5 18 13.95 18 14.5C18 15.05 17.55 15.5 17 15.5ZM11 15.5H7C6.45 15.5 6 15.05 6 14.5C6 13.95 6.45 13.5 7 13.5H11C11.55 13.5 12 13.95 12 14.5C12 15.05 11.55 15.5 11 15.5ZM19 5.5H5C3.346 5.5 2 6.846 2 8.5V16.5C2 18.154 3.346 19.5 5 19.5H19C20.654 19.5 22 18.154 22 16.5V8.5C22 6.846 20.654 5.5 19 5.5Z" fill="white"/>
</mask>
<g mask="url(#mask0_1317_9743)">
<rect y="0.5" width="24" height="24" fill="#99A0A8"/>
</g>
</svg>
