<svg width="21" height="20" viewBox="0 0 21 20" fill="none" xmlns="http://www.w3.org/2000/svg">
<path d="M18.334 18.3335H3.33398C2.99232 18.3335 2.70898 18.0502 2.70898 17.7085C2.70898 17.3668 2.99232 17.0835 3.33398 17.0835H18.334C18.6757 17.0835 18.959 17.3668 18.959 17.7085C18.959 18.0502 18.6757 18.3335 18.334 18.3335Z" fill="#292D32"/>
<path d="M16.6835 2.90005C15.0668 1.28338 13.4835 1.24172 11.8251 2.90005L10.8168 3.90838C10.7335 3.99172 10.7001 4.12505 10.7335 4.24172C11.3668 6.45005 13.1335 8.21672 15.3418 8.85005C15.3751 8.85838 15.4085 8.86672 15.4418 8.86672C15.5335 8.86672 15.6168 8.83338 15.6835 8.76672L16.6835 7.75838C17.5085 6.94172 17.9085 6.15005 17.9085 5.35005C17.9168 4.52505 17.5168 3.72505 16.6835 2.90005Z" fill="#292D32"/>
<path d="M13.8429 9.60817C13.6012 9.4915 13.3679 9.37484 13.1429 9.2415C12.9596 9.13317 12.7846 9.0165 12.6096 8.8915C12.4679 8.79984 12.3012 8.6665 12.1429 8.53317C12.1262 8.52484 12.0679 8.47484 12.0012 8.40817C11.7262 8.17484 11.4179 7.87484 11.1429 7.5415C11.1179 7.52484 11.0762 7.4665 11.0179 7.3915C10.9346 7.2915 10.7929 7.12484 10.6679 6.93317C10.5679 6.80817 10.4512 6.62484 10.3429 6.4415C10.2096 6.2165 10.0929 5.9915 9.97624 5.75817C9.82328 5.43039 9.39306 5.33301 9.13729 5.58879L4.45124 10.2748C4.34291 10.3832 4.24291 10.5915 4.21791 10.7332L3.76791 13.9248C3.68458 14.4915 3.84291 15.0248 4.19291 15.3832C4.49291 15.6748 4.90958 15.8332 5.35958 15.8332C5.45958 15.8332 5.55958 15.8248 5.65958 15.8082L8.85958 15.3582C9.00958 15.3332 9.21791 15.2332 9.31791 15.1248L14.0117 10.4311C14.2623 10.1804 14.1682 9.74912 13.8429 9.60817Z" fill="#292D32"/>
</svg>
