<svg width="24" height="24" viewBox="0 0 24 24" fill="none" xmlns="http://www.w3.org/2000/svg">
<path fill-rule="evenodd" clip-rule="evenodd" d="M7.85548 12C7.85548 9.74722 9.75546 8 11.9994 8C14.2434 8 16.1433 9.74722 16.1433 12C16.1433 14.2528 14.2434 16 11.9994 16C9.75546 16 7.85548 14.2528 7.85548 12ZM11.9994 10C10.7707 10 9.85548 10.9391 9.85548 12C9.85548 13.0609 10.7707 14 11.9994 14C13.2281 14 14.1433 13.0609 14.1433 12C14.1433 10.9391 13.2281 10 11.9994 10Z" fill="#636C79"/>
<path fill-rule="evenodd" clip-rule="evenodd" d="M1.05015 11.6873C2.52462 7.20774 6.88884 4 12 4C17.1112 4 21.4754 7.20778 22.9499 11.6874L23.0528 12L22.9499 12.3127C21.4754 16.7923 17.1112 20 12 20C6.88884 20 2.52459 16.7922 1.05014 12.3126L0.947235 12L1.05015 11.6873ZM3.05952 12C4.35369 15.4745 7.84975 18 12 18C16.1503 18 19.6463 15.4745 20.9405 12C19.6463 8.52551 16.1503 6 12 6C7.84975 6 4.35371 8.52548 3.05952 12Z" fill="#636C79"/>
</svg>
