<svg width="24" height="24" viewBox="0 0 24 24" fill="none" xmlns="http://www.w3.org/2000/svg">
<g clip-path="url(#clip0_2155_16350)">
<path fill-rule="evenodd" clip-rule="evenodd" d="M2 0.585693L6.66951 5.2552C8.26454 4.45267 10.079 3.99991 12 3.99991C17.1112 3.99991 21.4754 7.20768 22.9499 11.6873L23.0528 11.9999L22.9499 12.3126C22.2432 14.4594 20.8721 16.3137 19.0765 17.6622L23.4142 21.9999L22 23.4141L0.585785 1.99991L2 0.585693ZM17.645 16.2307C19.151 15.169 20.3083 13.6976 20.9405 12C19.6463 8.52543 16.1503 5.99991 12 5.99991C10.6371 5.99991 9.34412 6.27248 8.17625 6.76194L9.94148 8.52717C10.55 8.19075 11.2535 7.99991 11.9992 7.99991C14.2432 7.99991 16.1431 9.74712 16.1431 11.9999C16.1431 12.7767 15.9136 13.4984 15.5218 14.1075L17.645 16.2307ZM14.0371 12.6228C14.1063 12.4258 14.1431 12.2163 14.1431 11.9999C14.1431 10.939 13.2279 9.99991 11.9992 9.99991C11.8175 9.99991 11.6418 10.0209 11.4744 10.0601L14.0371 12.6228Z" fill="#636C79"/>
<path d="M4.92295 8.93265L4.31647 9.72774C3.78897 10.4193 3.36358 11.1833 3.0595 11.9999C4.35366 15.4744 7.84973 17.9999 12 17.9999C12.4076 17.9999 12.8088 17.9755 13.2021 17.9283L14.195 17.8091L14.4334 19.7949L13.4405 19.9141C12.9682 19.9707 12.4875 19.9999 12 19.9999C6.88882 19.9999 2.52458 16.7921 1.05013 12.3125L0.947221 11.9999L1.05013 11.6872C1.42954 10.5345 2.00086 9.46578 2.72628 8.51477L3.33277 7.71968L4.92295 8.93265Z" fill="#636C79"/>
</g>
<defs>
<clipPath id="clip0_2155_16350">
<rect width="24" height="24" fill="white"/>
</clipPath>
</defs>
</svg>
