<svg width="193" height="173" viewBox="0 0 193 173" fill="none" xmlns="http://www.w3.org/2000/svg">
<path d="M103.015 0L108.763 1.7122L105.95 26.1722L102.893 25.0715L103.015 0Z" fill="#B8BFCD"/>
<path d="M102.648 27.8844L105.461 28.9851L105.094 31.3088L102.281 30.3304L102.648 27.8844Z" fill="#B8BFCD"/>
<path d="M113.288 13.0862L119.036 14.6761L116.346 30.3305L113.166 29.2298L113.288 13.0862Z" fill="#B8BFCD"/>
<path d="M112.922 31.9203L115.734 33.021L115.368 35.2224L112.555 34.244L112.922 31.9203Z" fill="#B8BFCD"/>
<path d="M142.884 121.322H67.6699C67.6699 121.322 71.8281 119.976 64.6124 121.322C57.2744 122.667 57.2744 122.422 57.8859 117.775C58.4974 113.128 62.9002 108.358 66.3246 103.221C65.9577 98.3293 67.5476 93.1927 73.2957 88.423C73.2957 88.3007 73.2957 88.1784 73.2957 88.0561C70.4828 60.0494 85.2811 69.2219 97.6334 64.5745L96.0435 63.4738L114.144 55.6466C114.144 55.6466 119.281 56.9919 124.05 59.6825C127.597 61.7616 130.899 64.4522 131.388 67.8766C132 71.7902 131.388 76.9268 130.532 81.6965C129.798 85.977 128.942 89.8906 128.698 92.4589C128.698 92.9481 128.575 93.315 128.575 93.6819C129.431 97.7178 135.057 103.711 134.323 107.624C136.28 109.703 138.726 115.941 139.093 118.631C139.582 121.322 142.884 121.322 142.884 121.322Z" fill="#DDE3EE"/>
<path opacity="0.1" d="M130.532 81.6965C129.799 85.977 128.943 89.8906 128.698 92.5812C126.863 95.8833 123.561 97.9624 119.036 100.531C118.058 101.142 116.835 101.631 115.734 101.998C114.144 102.487 112.554 102.977 110.964 103.221C106.072 104.2 101.058 104.444 96.0438 103.466C91.8856 102.61 87.7274 101.264 83.9361 99.0631C82.7131 98.3293 81.3678 97.4732 80.2671 96.4948C76.965 93.6819 74.3967 91.2359 73.0514 88.3007C71.8284 85.8547 71.5838 83.0418 72.1953 79.2505C73.6629 71.1787 75.6197 65.0636 75.6197 65.0636C75.742 64.4521 76.7204 63.596 77.0873 63.1068C77.6988 62.4953 78.0657 61.7615 78.6772 61.15C79.6556 59.927 80.8786 58.5817 81.857 57.3587C84.303 54.9127 86.9936 52.9559 90.1734 51.7329C95.31 49.8984 100.813 50.143 106.072 50.8768C109.864 51.366 113.9 52.2221 117.324 54.1789C119.892 55.6465 121.971 57.481 123.806 59.8047C124.173 60.1716 124.417 60.6608 124.784 61.0277C126.863 64.0852 128.331 67.5096 130.043 70.8118C130.166 70.8118 130.532 75.3369 130.532 81.6965Z" fill="#AAB2C5"/>
<path d="M27.7988 121.444H186.911" stroke="#D6DCE8" stroke-width="1.5905" stroke-miterlimit="10" stroke-linecap="round" stroke-linejoin="round"/>
<path d="M9.08789 121.444H19.2388" stroke="#D6DCE8" stroke-width="1.5905" stroke-miterlimit="10" stroke-linecap="round" stroke-linejoin="round"/>
<path d="M119.648 90.8689C118.669 91.4804 117.446 91.9696 116.345 92.3365C114.878 92.8257 113.166 93.3149 111.576 93.5595C106.684 94.5379 101.669 94.7825 96.6551 93.6818C92.4969 92.8257 88.3387 91.4804 84.5474 89.279C83.2021 88.5452 81.9791 87.6891 80.8784 86.7107C74.6411 81.4518 71.339 77.5382 72.8066 69.4664C74.2742 61.3946 76.1087 55.4019 76.1087 55.4019C76.231 54.7904 77.2094 53.9343 77.5763 53.4451C78.1878 52.8336 78.5547 52.0998 79.1662 51.4883C80.1446 50.2653 81.2453 48.92 82.346 47.697C84.792 45.251 87.4826 43.2942 90.6624 42.0712C95.799 40.2367 101.303 40.4813 106.561 41.2151C110.475 41.7043 114.389 42.5604 117.813 44.5172C120.871 46.2294 123.194 48.5531 125.151 51.366C127.23 54.4235 128.698 57.8479 130.41 61.2723C130.41 61.2723 131.021 67.6319 130.777 75.826C130.777 84.0201 126.741 86.9553 119.648 90.8689Z" fill="#EAEEF9"/>
<path d="M93.2298 70.0779C92.0068 70.934 90.1723 74.2361 85.0357 71.5455C77.82 67.6319 79.6545 57.8479 84.1796 55.1573C92.2514 50.3876 99.5894 53.812 99.9563 61.2723C100.323 69.2218 95.7981 68.488 93.2298 70.0779Z" fill="#BFC8D6"/>
<path d="M133.956 116.797C132.978 118.02 133.223 119.854 134.568 120.832C135.302 121.322 136.036 121.811 136.402 123.034C137.259 125.48 145.086 131.228 149.122 130.005C153.28 128.782 157.805 125.724 156.704 120.71C155.726 115.696 151.323 113.25 149.122 113.128C146.92 112.883 139.215 112.027 136.647 113.984C135.669 114.84 134.69 115.94 133.956 116.797Z" fill="#EAEEF9"/>
<path d="M69.6268 116.797C70.6052 118.02 70.3606 119.854 69.0153 120.833C68.2815 121.322 67.5477 121.811 67.1808 123.034C66.3247 125.48 58.4975 131.228 54.4616 130.005C50.4257 128.782 45.7783 125.725 46.879 120.71C47.8574 115.696 52.2602 113.25 54.4616 113.128C56.663 113.005 64.3679 112.027 66.9362 113.984C68.0369 114.84 69.0153 115.941 69.6268 116.797Z" fill="#EAEEF9"/>
<path d="M89.0712 68.4881C92.251 68.855 95.0639 66.5313 95.4308 63.3515C95.7977 60.1717 93.474 57.3588 90.2942 56.9919C87.1144 56.625 84.3015 58.9487 83.9346 62.1285C83.5677 65.3083 85.8914 68.1212 89.0712 68.4881Z" fill="white"/>
<path d="M94.6978 63.963C94.4532 66.409 92.2518 68.2435 89.8058 67.9989C87.3598 67.7543 85.5253 65.5529 85.7699 63.1069C86.1368 63.4738 86.626 63.8407 87.1152 63.963C88.2159 64.0853 89.1943 63.3515 89.3166 62.1285C89.4389 61.0278 88.7051 60.0494 87.6044 59.9271C88.4605 59.3156 89.5612 59.071 90.6619 59.1933C93.2302 59.3156 94.9424 61.3947 94.6978 63.963Z" fill="#989FB0"/>
<path d="M116.956 71.4233C120.136 71.7902 122.949 69.4665 123.316 66.2866C123.682 63.1068 121.359 60.2939 118.179 59.927C114.999 59.5601 112.186 61.8838 111.819 65.0636C111.452 68.3658 113.776 71.1787 116.956 71.4233Z" fill="white"/>
<path d="M112.309 65.7974C112.064 68.2434 113.899 70.4448 116.345 70.6894C118.791 70.934 120.992 69.0995 121.237 66.6535C120.87 67.0204 120.259 67.265 119.769 67.1427C118.669 67.0204 117.813 66.042 117.935 64.9413C118.057 63.8406 119.036 63.1068 120.136 63.1068C119.402 62.373 118.424 61.8838 117.323 61.7615C114.877 61.5169 112.676 63.2291 112.309 65.7974Z" fill="#989FB0"/>
<path d="M92.6183 49.0423C90.5392 49.4092 88.7047 49.7761 87.2371 50.7545C85.7695 51.7329 84.3019 53.3228 83.5681 55.1573C83.5681 55.2796 83.4458 55.2796 83.3235 55.2796C83.2012 55.2796 83.2012 55.1573 83.2012 55.1573C83.3235 54.1789 83.8127 53.0782 84.4242 52.2221C84.9134 51.2437 85.7695 50.5099 86.7479 49.8984C87.7263 49.2869 88.5824 48.7977 89.6831 48.4308C90.7838 48.3085 91.8845 48.1862 92.8629 48.6754C92.7406 48.6754 92.9852 48.92 92.6183 49.0423C92.7406 49.0423 92.7406 49.0423 92.6183 49.0423Z" fill="#989FB0"/>
<path d="M117.691 53.4451C119.525 54.1789 121.115 54.9127 122.46 56.1357C123.683 57.3587 124.662 59.1932 125.029 61.0277C125.029 61.15 125.151 61.15 125.273 61.15C125.396 61.15 125.396 61.0277 125.396 61.0277C125.518 60.0493 125.151 58.9486 124.906 58.0925C124.54 57.1141 124.05 56.1357 123.194 55.4019C122.46 54.6681 121.727 53.9343 120.748 53.4451C119.77 53.0782 118.669 52.8336 117.691 52.9559C117.568 53.0782 117.568 53.2005 117.691 53.4451C117.691 53.4451 117.446 53.4451 117.691 53.4451Z" fill="#989FB0"/>
<path d="M128.574 48.064C126.373 45.1288 123.193 45.9849 124.416 49.4093C126.373 54.7905 130.042 57.3588 131.02 77.416C131.265 80.9627 143.128 73.3801 143.128 60.7832C143.128 58.4595 140.315 57.6034 140.315 57.6034C138.603 57.1142 132.121 52.5891 128.574 48.064Z" fill="#989FB0"/>
<path d="M27.8 57.6034C27.8 57.6034 14.8361 53.8121 16.9152 58.0926C18.9943 62.3731 24.7424 70.9341 33.915 73.0132C43.0875 74.97 37.584 66.8982 37.7063 67.0205L27.8 57.6034Z" fill="#EEEEEE"/>
<g filter="url(#filter0_d_1842_17652)">
<path d="M14.102 49.2869C17.4041 52.9559 31.2241 58.3371 42.4757 57.8479C44.0656 69.5887 45.2886 73.1354 47.3677 74.603C41.7419 76.0706 26.5766 74.8476 24.4975 63.4737C13.8574 63.9629 14.102 49.2869 14.102 49.2869Z" fill="url(#paint0_linear_1842_17652)"/>
</g>
<g filter="url(#filter1_d_1842_17652)">
<path d="M160.25 92.7035C163.919 90.2575 170.523 78.8836 171.502 69.0996C181.897 69.0996 185.077 68.6104 186.789 66.8982C187.278 72.0348 186.3 84.6317 177.494 92.092C167.71 93.0704 160.25 92.7035 160.25 92.7035Z" fill="url(#paint1_linear_1842_17652)"/>
</g>
<g filter="url(#filter2_d_1842_17652)">
<path d="M132.734 132.696C115.734 135.508 112.677 135.998 106.195 135.142C99.7131 134.285 90.6629 133.185 87.6054 139.055C86.2601 131.35 83.2026 124.257 77.5768 118.876C77.9437 118.386 78.1883 117.653 78.1883 116.919C78.1883 115.451 77.3322 114.228 75.9869 113.739C76.2315 113.25 76.3538 112.761 76.3538 112.271C76.3538 110.437 74.8862 108.847 72.9293 108.847C71.8286 108.847 70.8502 109.336 70.2387 110.192C70.361 109.581 70.4833 109.092 70.4833 108.847C70.4833 107.013 69.0157 105.423 67.0589 105.423C66.0805 105.423 65.1021 105.912 64.4906 106.646C64.0014 105.912 63.2676 105.423 62.2892 105.423C60.8216 105.423 59.7209 106.523 59.7209 107.991C59.7209 108.236 59.7209 108.847 59.7209 109.581C51.0376 106.768 49.2031 106.646 49.2031 106.646C54.462 96.2501 79.4113 81.0849 97.3894 83.8978C108.886 85.61 121.849 88.7898 128.454 101.387C128.087 101.264 127.72 101.142 127.353 101.142C127.231 101.142 126.986 101.142 126.741 101.264C126.13 100.408 125.151 99.9191 124.051 99.9191C122.339 99.9191 120.993 101.142 120.749 102.732C120.626 102.732 120.137 102.732 119.77 102.732C117.936 102.732 116.468 104.2 116.468 106.034C116.468 107.379 117.324 108.602 118.547 109.092C117.936 109.703 117.569 110.437 117.569 111.415C117.569 113.25 119.036 114.717 120.871 114.717C122.094 114.717 123.072 114.106 123.684 113.25C124.295 114.106 125.274 114.717 126.497 114.717C128.331 114.717 129.799 113.25 129.799 111.415C129.799 111.293 129.799 111.293 129.799 111.171C130.655 110.804 131.389 110.07 131.633 109.214C133.223 115.329 133.835 123.034 132.734 132.696Z" fill="url(#paint2_linear_1842_17652)"/>
</g>
<path d="M90.0508 123.768C94.8205 122.3 115.122 117.775 126.741 119.12L90.0508 123.768Z" fill="white"/>
<path fill-rule="evenodd" clip-rule="evenodd" d="M105.955 121.174C98.8549 122.317 92.6252 123.808 90.2861 124.528L89.8184 123.008C92.249 122.26 98.5551 120.754 105.703 119.604C112.837 118.456 120.909 117.644 126.834 118.33L126.651 119.91C120.957 119.251 113.068 120.029 105.955 121.174Z" fill="#D6DCE8"/>
<path d="M85.2812 117.286C89.1949 115.573 108.029 111.66 117.568 111.293L85.2812 117.286Z" fill="white"/>
<path fill-rule="evenodd" clip-rule="evenodd" d="M90.8281 116.451C88.359 117.065 86.5094 117.617 85.6004 118.014L84.9629 116.557C86.0107 116.099 87.983 115.52 90.4441 114.907C92.9252 114.29 95.9584 113.626 99.1643 113.004C105.564 111.764 112.706 110.684 117.538 110.499L117.599 112.088C112.892 112.269 105.847 113.329 99.4669 114.566C96.2826 115.183 93.2772 115.841 90.8281 116.451Z" fill="#D6DCE8"/>
<path d="M80.7559 110.07C96.288 101.387 108.518 105.056 118.547 97.3508L80.7559 110.07Z" fill="white"/>
<path fill-rule="evenodd" clip-rule="evenodd" d="M101.858 104.126C95.6086 105.257 88.7851 106.493 81.1453 110.764L80.3691 109.376C88.2454 104.973 95.2903 103.698 101.537 102.568L101.575 102.561C107.854 101.425 113.225 100.438 118.063 96.7202L119.032 97.9815C113.861 101.954 108.127 102.992 101.926 104.114L101.858 104.126Z" fill="#D6DCE8"/>
<path d="M75.7422 104.567C82.3464 100.041 87.9722 97.9623 95.5548 97.3508L75.7422 104.567Z" fill="white"/>
<path fill-rule="evenodd" clip-rule="evenodd" d="M95.619 98.1435C88.1851 98.743 82.6907 100.77 76.192 105.223L75.293 103.91C82.0026 99.3131 87.7599 97.1816 95.4912 96.5581L95.619 98.1435Z" fill="#D6DCE8"/>
<path d="M116.712 86.7108C116.712 86.8331 116.712 87.0777 116.712 87.2V87.3223C116.712 87.4446 116.712 87.5669 116.589 87.6892C115.856 89.646 112.676 91.9697 109.374 92.3366C106.072 92.7035 102.647 91.3582 101.18 85.8547C97.6328 89.2791 94.2084 89.7683 91.3955 89.0345C87.7265 88.0561 85.2805 85.1209 85.1582 84.2648C85.1582 83.8979 85.1582 83.531 85.2805 83.1641C86.1366 75.2146 93.8415 69.5888 102.525 70.5672C111.208 71.6679 117.568 78.8836 116.712 86.7108Z" fill="#BFC8D6"/>
<path d="M102.525 71.7902C101.792 71.6679 100.935 71.6679 100.202 71.7902C99.2232 72.0348 97.7556 72.2794 97.511 73.5024C97.3887 75.0923 100.813 76.9268 101.792 77.0491C102.77 77.1714 106.561 76.193 106.806 74.6031C106.928 73.0132 105.583 72.4017 104.36 72.0348C103.748 71.9125 103.015 71.6679 102.525 71.7902Z" fill="#989FB0"/>
<path fill-rule="evenodd" clip-rule="evenodd" d="M101.513 79.9801C101.456 78.3497 101.258 76.6447 101.094 75.576L102.082 75.424C102.251 76.5219 102.453 78.2669 102.513 79.9449C102.542 80.7836 102.536 81.6156 102.47 82.3466C102.405 83.0642 102.278 83.7371 102.035 84.2236L101.141 83.7764C101.297 83.4629 101.412 82.944 101.474 82.2565C101.535 81.5823 101.542 80.7955 101.513 79.9801Z" fill="#989FB0"/>
<path d="M82.1004 47.4524L81.9781 48.7977C81.3666 49.4092 80.8774 50.143 80.2659 50.8768C77.0861 55.1574 74.1508 60.7832 73.2947 67.8766C73.0501 67.0205 70.4818 57.848 69.9926 56.1358C69.8703 55.7689 69.748 55.5243 69.748 55.5243V52.9559L72.0717 47.8193L78.0645 44.7618L82.1004 47.4524Z" fill="#6F788D"/>
<path d="M87.4814 43.6612C85.7692 44.8842 83.8124 46.5964 81.9779 48.7978C81.3664 49.4093 80.8772 50.1431 80.2657 50.8769C80.0211 47.4525 75.9852 46.9633 75.9852 46.9633C75.496 50.0208 72.8054 53.4452 69.8702 56.1359C67.4242 58.3373 64.7336 59.9272 63.0214 60.0495C62.5322 60.0495 62.1653 59.6826 62.4099 59.1934C63.6329 56.0136 63.266 51.3661 63.6329 49.0424C64.1221 46.4741 71.4601 42.5605 75.2514 41.0929C78.1866 39.9922 85.8915 41.5821 87.4814 43.6612Z" fill="#989FB0"/>
<defs>
<filter id="filter0_d_1842_17652" x="0.101562" y="39.2869" width="53.2656" height="45.8157" filterUnits="userSpaceOnUse" color-interpolation-filters="sRGB">
<feFlood flood-opacity="0" result="BackgroundImageFix"/>
<feColorMatrix in="SourceAlpha" type="matrix" values="0 0 0 0 0 0 0 0 0 0 0 0 0 0 0 0 0 0 127 0" result="hardAlpha"/>
<feOffset dx="-4"/>
<feGaussianBlur stdDeviation="5"/>
<feColorMatrix type="matrix" values="0 0 0 0 0.397708 0 0 0 0 0.47749 0 0 0 0 0.575 0 0 0 0.15 0"/>
<feBlend mode="normal" in2="BackgroundImageFix" result="effect1_dropShadow_1842_17652"/>
<feBlend mode="normal" in="SourceGraphic" in2="effect1_dropShadow_1842_17652" result="shape"/>
</filter>
<filter id="filter1_d_1842_17652" x="146.25" y="56.8982" width="46.6406" height="45.8727" filterUnits="userSpaceOnUse" color-interpolation-filters="sRGB">
<feFlood flood-opacity="0" result="BackgroundImageFix"/>
<feColorMatrix in="SourceAlpha" type="matrix" values="0 0 0 0 0 0 0 0 0 0 0 0 0 0 0 0 0 0 127 0" result="hardAlpha"/>
<feOffset dx="-4"/>
<feGaussianBlur stdDeviation="5"/>
<feColorMatrix type="matrix" values="0 0 0 0 0.397708 0 0 0 0 0.47749 0 0 0 0 0.575 0 0 0 0.15 0"/>
<feBlend mode="normal" in2="BackgroundImageFix" result="effect1_dropShadow_1842_17652"/>
<feBlend mode="normal" in="SourceGraphic" in2="effect1_dropShadow_1842_17652" result="shape"/>
</filter>
<filter id="filter2_d_1842_17652" x="27.2031" y="72.5559" width="128.09" height="99.4993" filterUnits="userSpaceOnUse" color-interpolation-filters="sRGB">
<feFlood flood-opacity="0" result="BackgroundImageFix"/>
<feColorMatrix in="SourceAlpha" type="matrix" values="0 0 0 0 0 0 0 0 0 0 0 0 0 0 0 0 0 0 127 0" result="hardAlpha"/>
<feOffset dy="11"/>
<feGaussianBlur stdDeviation="11"/>
<feColorMatrix type="matrix" values="0 0 0 0 0.397708 0 0 0 0 0.47749 0 0 0 0 0.575 0 0 0 0.27 0"/>
<feBlend mode="normal" in2="BackgroundImageFix" result="effect1_dropShadow_1842_17652"/>
<feBlend mode="normal" in="SourceGraphic" in2="effect1_dropShadow_1842_17652" result="shape"/>
</filter>
<linearGradient id="paint0_linear_1842_17652" x1="30.7238" y1="48.6897" x2="30.7238" y2="75.3808" gradientUnits="userSpaceOnUse">
<stop stop-color="#FDFEFF"/>
<stop offset="0.9964" stop-color="#ECF0F5"/>
</linearGradient>
<linearGradient id="paint1_linear_1842_17652" x1="173.562" y1="66.2997" x2="173.562" y2="93.0498" gradientUnits="userSpaceOnUse">
<stop stop-color="#FDFEFF"/>
<stop offset="0.9964" stop-color="#ECF0F5"/>
</linearGradient>
<linearGradient id="paint2_linear_1842_17652" x1="91.2202" y1="82.2722" x2="91.2202" y2="139.653" gradientUnits="userSpaceOnUse">
<stop stop-color="#FDFEFF"/>
<stop offset="0.9964" stop-color="#ECF0F5"/>
</linearGradient>
</defs>
</svg>
