<svg width="24" height="25" viewBox="0 0 24 25" fill="none" xmlns="http://www.w3.org/2000/svg">
<g clip-path="url(#clip0_1814_23411)">
<path d="M20 8.01277H17V6.22277C17 3.61277 15.09 1.28277 12.49 1.03277C9.51 0.752774 7 3.09277 7 6.01277V8.01277H4V22.0128H20V8.01277ZM12 17.0128C10.9 17.0128 10 16.1128 10 15.0128C10 13.9128 10.9 13.0128 12 13.0128C13.1 13.0128 14 13.9128 14 15.0128C14 16.1128 13.1 17.0128 12 17.0128ZM9 8.01277V6.01277C9 4.35277 10.34 3.01277 12 3.01277C13.66 3.01277 15 4.35277 15 6.01277V8.01277H9Z" fill="#3B81F4"/>
</g>
<defs>
<clipPath id="clip0_1814_23411">
<rect width="24" height="24" fill="white" transform="translate(0 0.0126953)"/>
</clipPath>
</defs>
</svg>
