<svg width="21" height="20" viewBox="0 0 21 20" fill="none" xmlns="http://www.w3.org/2000/svg">
<path d="M6.33346 9.16658H8.00846V10.8333H6.33346V9.16658Z" fill="black"/>
<path d="M9.66679 9.16658H11.3418V10.8333H9.66679V9.16658Z" fill="black"/>
<path d="M13.0001 9.16658H14.6751V10.8333H13.0001V9.16658Z" fill="black"/>
<path fill-rule="evenodd" clip-rule="evenodd" d="M1.33345 9.99992C1.33345 4.93731 5.43751 0.833252 10.5001 0.833252C15.5627 0.833252 19.6668 4.93731 19.6668 9.99992C19.6668 15.0625 15.5627 19.1666 10.5001 19.1666C9.10618 19.1666 7.78295 18.8549 6.59815 18.2968L1.10449 19.3955L2.20322 13.9019C1.64514 12.7171 1.33345 11.3939 1.33345 9.99992ZM10.5001 2.49992C6.35799 2.49992 3.00012 5.85778 3.00012 9.99992C3.00012 11.2292 3.29523 12.3871 3.81773 13.409L3.9498 13.6674L3.22908 17.271L6.83268 16.5502L7.091 16.6823C8.1129 17.2048 9.27083 17.4999 10.5001 17.4999C14.6423 17.4999 18.0001 14.1421 18.0001 9.99992C18.0001 5.85778 14.6423 2.49992 10.5001 2.49992Z" fill="black"/>
</svg>
