<svg width="120" height="117" viewBox="0 0 120 117" fill="none" xmlns="http://www.w3.org/2000/svg">
<path d="M117.191 58.147C117.191 69.7983 113.744 80.6838 107.782 89.7642C106.469 91.8428 105.047 93.7026 103.515 95.5624C92.8487 108.198 76.876 116.239 59.0982 116.239C41.3204 116.239 25.3478 108.144 14.6811 95.5624C13.1495 93.7026 11.7273 91.8428 10.4144 89.8189C8.88281 87.412 7.40589 84.8411 6.20247 82.1607C5.27256 80.0274 4.34264 77.8394 3.68623 75.5419C2.53751 72.0958 1.7717 68.6496 1.33409 65.0394C1.16999 64.1641 1.11529 63.2889 1.06059 62.3043C1.00589 60.9368 0.896484 59.4599 0.896484 58.0376C0.896484 41.7915 7.51529 27.1863 18.2367 16.6291C19.3307 15.5351 20.5341 14.4957 21.6828 13.4564C31.8572 5.14188 44.876 0 59.0982 0C70.476 0 81.1427 3.28205 90.1684 8.97095C90.606 9.18975 90.9889 9.46325 91.4265 9.79146C91.8094 10.065 92.247 10.2838 92.5752 10.612C94.7632 12.1436 96.8966 13.8393 98.8111 15.6992C99.9598 16.7932 101.109 17.8872 102.093 19.0906C103.351 20.5128 104.609 21.9351 105.703 23.5214C105.977 23.9043 106.196 24.2325 106.524 24.6154C106.797 24.9983 107.016 25.3265 107.344 25.7094C110.626 30.5778 113.143 35.9385 114.893 41.6274C115.167 42.6667 115.495 43.5966 115.714 44.6359C116.644 48.9026 117.191 53.4428 117.191 58.147Z" fill="#EAEEF9"/>
<path d="M112.322 89.7644V95.5627H14.626C13.0944 93.7029 11.6722 91.843 10.3594 89.8191H112.322V89.7644Z" fill="#D5DDEA"/>
<path d="M115.002 45.1284H67.6309V42.1199H114.181C114.564 43.0498 114.783 44.0891 115.002 45.1284Z" fill="#D5DDEA"/>
<path d="M105.922 25.0529V42.5025H81.7441V10.3384H90.7151C91.098 10.6119 91.5356 10.8307 91.8638 11.1589C94.0518 12.6905 96.1852 14.3862 98.0997 16.2461C99.2484 17.3401 100.397 18.4341 101.382 19.6375C102.64 21.0598 103.898 22.482 104.992 24.0683C105.375 24.3418 105.703 24.7247 105.922 25.0529Z" fill="white"/>
<path d="M105.922 25.0529C105.649 24.67 105.43 24.3418 105.102 23.9589V41.7367H82.5649V11.1042H91.864C91.4811 10.8307 91.1529 10.6119 90.7153 10.2836C90.3324 10.0101 89.8948 9.79134 89.4572 9.46313H80.8691V43.2136H106.579V26.1469C106.414 25.8187 106.196 25.4358 105.922 25.0529Z" fill="#D5DDEA"/>
<path d="M101.492 19.5831V36.6498H86.1211V16.1917H98.1006C99.3587 17.2857 100.453 18.3797 101.492 19.5831Z" fill="#EAEEF9"/>
<path d="M40.1724 88.7796C40.1724 89.2719 39.7895 89.6548 39.3519 89.8189C39.2972 89.8189 39.1878 89.8189 39.1331 89.8189H10.3604C8.82878 87.4121 7.35186 84.8412 6.14844 82.1608C7.46126 79.9728 8.22707 77.6206 8.55528 75.542C8.71938 74.8309 8.77408 74.1745 8.82878 73.4634H30.545C30.5997 74.1198 30.7638 74.7762 30.9279 75.542C31.7485 79.4805 33.8818 84.4036 38.3673 87.7403H39.0784C39.7348 87.7403 40.1724 88.2326 40.1724 88.7796Z" fill="#CAD3E2"/>
<path d="M60.5751 16.0275V73.0805C60.5751 74.448 59.4811 75.4873 58.1683 75.4873H3.68622C2.5922 72.2053 1.82639 68.7591 1.38878 65.1489C1.22468 64.2736 1.16998 63.3984 1.11527 62.4138C1.06057 60.9916 0.951172 59.5694 0.951172 58.1471C0.951172 41.901 7.56998 27.2958 18.2914 16.7386C19.3854 15.6446 20.5888 14.6052 21.7375 13.5659H58.0589C59.5358 13.5659 60.5751 14.7693 60.5751 16.0275Z" fill="#DEE5EF"/>
<path d="M60.5751 16.0275V65.1489H1.38878C1.22468 64.2736 1.16998 63.3984 1.11527 62.4138C1.06057 60.9916 0.951172 59.5694 0.951172 58.1471C0.951172 41.901 7.56998 27.2958 18.2914 16.7386C19.3854 15.6446 20.5888 14.6052 21.7375 13.5659H58.0589C59.5358 13.5659 60.5751 14.7693 60.5751 16.0275Z" fill="#D5DDEA"/>
<path d="M57.4025 16.7385V62.4685H1.16996C1.11526 61.0462 1.00586 59.624 1.00586 58.2018C1.00586 41.9556 7.62467 27.3505 18.346 16.7932H57.4025V16.7385Z" fill="white"/>
<path d="M19.4399 72.5879C20.534 72.5879 21.4092 71.7127 21.4092 70.6186C21.4092 69.5246 20.534 68.6494 19.4399 68.6494C18.3459 68.6494 17.4707 69.5246 17.4707 70.6186C17.4707 71.7127 18.3459 72.5879 19.4399 72.5879Z" fill="white"/>
<path d="M30.2704 76.4173V78.7694H28.6293C27.6994 78.7694 26.8789 79.5899 26.8789 80.5198V83.8019C26.8789 84.7318 27.6994 85.5523 28.6293 85.5523H30.2704V88.0686C30.2704 88.9438 30.9815 89.7096 31.9114 89.7096H39.1866C40.0618 89.7096 40.8276 88.9985 40.8276 88.0686V76.3079H30.2704V76.4173ZM28.6293 84.3489C28.4105 84.3489 28.1917 84.1301 28.1917 83.9113V80.6292C28.1917 80.4104 28.4105 80.1916 28.6293 80.1916H30.2704V84.4036H28.6293V84.3489Z" fill="#989FB0"/>
<path d="M35.6307 62.5776C36.2871 64.2187 36.4512 65.8597 35.4666 67.1178C34.5367 68.4306 33.8256 70.1811 34.8102 71.5486C35.7401 72.8614 36.0683 73.9007 35.6854 74.5571C35.3025 75.2135 35.6854 74.5024 36.9436 73.0802C38.0376 71.9315 36.0683 70.9469 36.0136 70.017C35.9589 69.1417 37.053 67.2819 37.053 66.0785C36.9983 64.7657 36.3965 63.0699 35.6307 62.5776Z" fill="white"/>
<path d="M32.8972 69.7437C33.1707 70.5642 33.2801 71.3847 32.8425 72.0411C32.4049 72.6975 32.022 73.5727 32.569 74.2291C33.0613 74.8855 33.1707 75.3778 33.0066 75.7607C32.8425 76.1437 33.0066 75.7607 33.663 75.0496C34.1553 74.4479 33.2254 73.9556 33.1707 73.518C33.116 73.0804 33.663 72.2052 33.663 71.5488C33.6083 70.8377 33.3348 70.0172 32.8972 69.7437Z" fill="white"/>
<path d="M62.1621 77.9487C62.7638 76.6358 64.7878 74.1196 66.8664 73.0803C67.1399 72.9162 67.4681 73.0256 67.5775 73.2991C68.1792 74.3384 69.6561 76.964 69.1091 79.535C68.398 82.6529 62.1621 77.9487 62.1621 77.9487Z" fill="#989FB0"/>
<path d="M59.5905 78.1675C59.5905 78.1675 56.9648 75.3231 55.2691 74.2838C54.8315 74.0649 54.3392 74.229 54.1204 74.6667C52.2606 78.1675 52.2606 82.2154 52.6982 84.3487C53.1905 86.6461 57.1289 80.3008 57.1289 80.3008L59.5905 78.1675Z" fill="#989FB0"/>
<path d="M58.3863 79.0976C58.3863 79.0976 56.7452 77.3472 55.7606 76.6908C55.4871 76.5814 55.1589 76.6361 55.0495 76.9096C53.9555 79.0976 53.9008 81.5591 54.229 82.872C54.5572 84.2942 56.964 80.3557 56.964 80.3557L58.3863 79.0976Z" fill="#D5DDEA"/>
<path d="M63.8574 78.1126C64.1856 77.2374 65.4985 75.5964 66.7566 74.9399C66.9207 74.8852 67.0848 74.9399 67.2489 75.1041C67.5771 75.7605 68.507 77.4562 68.1788 79.1519C67.7412 81.2305 63.8574 78.1126 63.8574 78.1126Z" fill="#D5DDEA"/>
<path d="M115.167 111.973C109.588 109.621 110.408 102.291 110.955 95.5078C111.448 95.5078 111.885 95.5078 112.378 95.5078C112.378 93.5933 112.378 91.6241 112.378 89.7095C112.378 89.6548 109.807 89.7642 109.533 89.7642C108.275 89.7642 107.619 89.0531 106.579 88.6155C106.689 88.6702 106.306 91.6241 106.251 91.9523C104.446 99.8839 100.781 102.674 104.227 106.339C105.266 107.433 105.759 109.785 103.352 110.824C100.945 111.754 99.5228 108.253 98.7023 106.557C97.2801 103.604 98.4835 99.2275 100.015 90.2565C100.015 90.2565 83.0031 90.2018 78.1348 90.2565C77.8066 91.6241 75.0715 101.142 74.6886 103.111C74.0869 106.065 75.0715 108.198 75.2903 109.785C75.5091 111.48 72.6647 112.629 70.5313 110.715C67.7963 108.198 70.6954 104.315 71.0783 95.6719C71.0783 95.1796 71.2424 89.8736 70.9142 89.8736C65.28 89.8736 59.7006 89.8189 54.0664 89.9283C53.41 89.9283 52.4253 90.2018 52.0424 89.6001C48.9792 85.1147 56.7467 74.995 65.3894 77.6206C66.8117 78.0582 68.3433 78.9882 69.8749 79.0976C69.8749 79.0976 70.7501 78.8241 75.1809 75.5967C82.6202 71.33 91.9741 71.6582 97.7724 73.0258C105.595 74.8856 106.962 81.1762 109.205 83.9659C112.432 88.0138 115.495 89.0531 115.058 98.954C114.894 102.947 114.839 105.08 118.121 107.378C120.309 109.128 118.559 113.395 115.167 111.973Z" fill="white"/>
<path d="M62.9812 88.9434C62.3795 88.9981 61.6137 89.1075 60.9026 89.1075C60.6838 89.1075 60.4103 89.1075 60.1915 89.1622C57.7846 89.2169 55.4872 88.8887 55.159 87.0836C54.9402 85.6614 56.9641 83.8562 58.0581 83.2545C61.7778 81.1759 65.6068 84.2391 66.0445 86.099C66.3727 87.6853 64.6769 88.6699 62.9812 88.9434Z" fill="#D5DDEA"/>
<path d="M60.5745 86.9744C61.1762 86.9744 61.6685 86.7556 61.6685 86.4274C61.6685 86.0992 61.1762 85.8804 60.5745 85.8804C59.9728 85.8804 59.4805 86.0992 59.4805 86.4274C59.4805 86.7556 59.9728 86.9744 60.5745 86.9744Z" fill="#989FB0"/>
<path d="M61.1214 86.9744V89.1077C60.7932 89.1077 60.3555 89.1624 60.0273 89.1624V87.0291L61.1214 86.9744Z" fill="#989FB0"/>
<path d="M75.2353 109.785C75.4541 111.481 72.6097 112.629 70.4763 110.715C68.343 108.746 70.3122 102.127 70.8592 98.6259C71.1328 96.7661 71.1327 94.5234 71.078 92.7729C72.008 93.9217 74.3054 96.8208 75.9464 98.3524C75.4541 100.267 74.9071 102.017 74.6883 103.221C74.0866 106.011 74.9618 108.144 75.2353 109.785Z" fill="#D5DDEA"/>
<path d="M104.117 106.393C105.157 107.487 105.649 109.84 103.242 110.879C100.835 111.809 99.4132 108.308 98.5927 106.612C97.7721 104.916 97.9362 100.869 98.5927 97.5865C98.8115 96.4378 99.085 95.1797 99.2491 94.0857C99.7414 94.3592 100.288 94.6874 100.726 95.0156C101.875 95.8908 103.023 96.9301 104.336 97.6413C103.735 99.337 103.242 100.705 102.914 101.361C102.203 103.166 103.078 105.299 104.117 106.393Z" fill="#D5DDEA"/>
<path d="M118.065 111.644C116.424 113.176 113.634 111.426 112.103 109.675C110.571 107.925 110.243 102.455 110.79 97.6957C110.845 96.8752 110.954 96.1641 110.845 95.5077H112.321V89.7094H107.836C107.781 89.6547 107.672 89.5453 107.617 89.4906C107.672 89.2718 107.781 88.9983 107.836 88.7795C108.219 87.6308 107.617 86.482 108.93 84.0205C109.313 84.6222 109.641 84.9504 110.024 85.2786C110.735 85.935 111.501 86.4273 112.814 88.2872C115.385 91.788 115.002 99.1727 114.892 102.072C114.838 105.08 116.862 106.94 118.12 107.432C119.214 107.979 119.651 110.113 118.065 111.644Z" fill="#D5DDEA"/>
<path d="M64.4048 80.5198H64.3501L62.8185 80.301C62.545 80.301 62.3809 80.0275 62.3809 79.8087C62.3809 79.5352 62.6544 79.3711 62.8732 79.3711L64.4048 79.5899C64.6783 79.5899 64.8424 79.8634 64.8424 80.0822C64.8424 80.4104 64.6236 80.5198 64.4048 80.5198Z" fill="#AAB2C5"/>
<path d="M57.0196 80.6836H57.0743L58.606 80.4648C58.8795 80.4648 59.0436 80.1913 59.0436 79.9725C59.0436 79.699 58.7701 79.5349 58.5513 79.5349L57.0196 79.7537C56.7461 79.7537 56.582 80.0272 56.582 80.246C56.6914 80.4648 56.8008 80.6289 57.0196 80.6836Z" fill="#AAB2C5"/>
<path d="M68.8707 41.9539L68.4107 39.3143L78.7395 37.5142L79.1995 40.1538L73.6216 49.8764L80.7944 48.6264L81.2544 51.2659L70.4665 53.146L70.0065 50.5064L75.5845 40.7838L68.8707 41.9539Z" fill="#989FB0"/>
<path d="M64.9152 60.1631L65.3948 58.5937L71.4631 60.448L70.9836 62.0174L65.3845 65.7403L69.5696 67.0191L69.09 68.5885L62.7078 66.6383L63.1874 65.0689L68.7864 61.346L64.9152 60.1631Z" fill="#989FB0"/>
<path d="M107.071 89.8736H112.322V89.8188V95.6171H105.867" fill="#D5DDEA"/>
</svg>
