<svg width="32" height="32" viewBox="0 0 32 32" fill="none" xmlns="http://www.w3.org/2000/svg">
<path d="M18.666 5.33334H13.3327C8.30437 5.33334 5.79021 5.33334 4.22811 6.89544C3.10339 8.02016 2.78848 9.63844 2.7003 12.3333H29.2984C29.2102 9.63844 28.8953 8.02016 27.7706 6.89544C26.2085 5.33334 23.6943 5.33334 18.666 5.33334Z" fill="#1C274C"/>
<path d="M13.3327 26.6667H18.666C23.6943 26.6667 26.2085 26.6667 27.7706 25.1046C29.3327 23.5425 29.3327 21.0283 29.3327 16C29.3327 15.4108 29.3327 14.856 29.3302 14.3333H2.66853C2.66602 14.856 2.66602 15.4108 2.66602 16C2.66602 21.0283 2.66602 23.5425 4.22811 25.1046C5.79021 26.6667 8.30437 26.6667 13.3327 26.6667Z" fill="#1C274C"/>
<path fill-rule="evenodd" clip-rule="evenodd" d="M6.99935 21.3333C6.99935 20.7811 7.44706 20.3333 7.99935 20.3333H13.3327C13.885 20.3333 14.3327 20.7811 14.3327 21.3333C14.3327 21.8856 13.885 22.3333 13.3327 22.3333H7.99935C7.44706 22.3333 6.99935 21.8856 6.99935 21.3333Z" fill="white"/>
<path fill-rule="evenodd" clip-rule="evenodd" d="M15.666 21.3333C15.666 20.7811 16.1137 20.3333 16.666 20.3333H18.666C19.2183 20.3333 19.666 20.7811 19.666 21.3333C19.666 21.8856 19.2183 22.3333 18.666 22.3333H16.666C16.1137 22.3333 15.666 21.8856 15.666 21.3333Z" fill="white"/>
</svg>
