<svg width="32" height="32" viewBox="0 0 32 32" fill="none" xmlns="http://www.w3.org/2000/svg">
<path d="M9.33398 6.66675C9.33398 4.45341 11.1207 2.66675 13.334 2.66675H18.6673C20.8807 2.66675 22.6673 4.45341 22.6673 6.66675C22.6673 7.40008 22.0673 8.00008 21.334 8.00008H10.6673C9.93398 8.00008 9.33398 7.40008 9.33398 6.66675Z" fill="black"/>
<path d="M23.6673 20C23.6673 20.5467 23.214 21 22.6673 21H21.334V25.3333C21.334 27.5467 19.5473 29.3333 17.334 29.3333H14.6673C12.454 29.3333 10.6673 27.5467 10.6673 25.3333V21H9.33398C8.78732 21 8.33398 20.5467 8.33398 20C8.33398 19.4533 8.78732 19 9.33398 19H22.6673C23.214 19 23.6673 19.4533 23.6673 20Z" fill="black"/>
<path d="M24 9.33325H8C5.33333 9.33325 4 10.6666 4 13.3333V19.9999C4 22.6666 5.33333 23.9999 8 23.9999H8.53333C8.97516 23.9999 9.33333 23.6417 9.33333 23.1999V23.1333C9.33333 22.6914 8.96466 22.3462 8.54915 22.196C7.64994 21.871 7 21.0054 7 19.9999C7 18.7199 8.05333 17.6666 9.33333 17.6666H22.6667C23.9467 17.6666 25 18.7199 25 19.9999C25 21.0054 24.3501 21.871 23.4509 22.196C23.0353 22.3462 22.6667 22.6914 22.6667 23.1333V23.1999C22.6667 23.6417 23.0248 23.9999 23.4667 23.9999H24C26.6667 23.9999 28 22.6666 28 19.9999V13.3333C28 10.6666 26.6667 9.33325 24 9.33325ZM13.3333 15.6666H9.33333C8.78667 15.6666 8.33333 15.2133 8.33333 14.6666C8.33333 14.1199 8.78667 13.6666 9.33333 13.6666H13.3333C13.88 13.6666 14.3333 14.1199 14.3333 14.6666C14.3333 15.2133 13.88 15.6666 13.3333 15.6666Z" fill="black"/>
</svg>
