<svg width="24" height="25" viewBox="0 0 24 25" fill="none" xmlns="http://www.w3.org/2000/svg">
<g clip-path="url(#clip0_1317_9621)">
<path d="M17.65 6.3627C16.2 4.9127 14.21 4.0127 12 4.0127C7.58001 4.0127 4.01001 7.5927 4.01001 12.0127C4.01001 16.4327 7.58001 20.0127 12 20.0127C15.73 20.0127 18.84 17.4627 19.73 14.0127H17.65C16.83 16.3427 14.61 18.0127 12 18.0127C8.69001 18.0127 6.00001 15.3227 6.00001 12.0127C6.00001 8.7027 8.69001 6.0127 12 6.0127C13.66 6.0127 15.14 6.7027 16.22 7.7927L13 11.0127H20V4.0127L17.65 6.3627Z" fill="#99A0A8"/>
</g>
<defs>
<clipPath id="clip0_1317_9621">
<rect width="24" height="24" fill="white" transform="translate(0 0.0126953)"/>
</clipPath>
</defs>
</svg>
