<svg width="32" height="33" viewBox="0 0 32 33" fill="none" xmlns="http://www.w3.org/2000/svg">
<path d="M25.2534 7.72665L18.3601 3.73998C17.0401 2.97998 14.9734 2.97998 13.6534 3.73998L6.69344 7.75332C3.93344 9.61998 3.77344 9.89998 3.77344 12.8733V20.1133C3.77344 23.0866 3.93344 23.38 6.74677 25.2733L13.6401 29.26C14.3068 29.6466 15.1601 29.8333 16.0001 29.8333C16.8401 29.8333 17.6934 29.6466 18.3468 29.26L25.3068 25.2466C28.0668 23.38 28.2268 23.1 28.2268 20.1266V12.8733C28.2268 9.89998 28.0668 9.61998 25.2534 7.72665ZM16.0001 20.8333C13.6134 20.8333 11.6668 18.8866 11.6668 16.5C11.6668 14.1133 13.6134 12.1666 16.0001 12.1666C18.3868 12.1666 20.3334 14.1133 20.3334 16.5C20.3334 18.8866 18.3868 20.8333 16.0001 20.8333Z" fill="black"/>
</svg>
