<svg width="32" height="32" viewBox="0 0 32 32" fill="none" xmlns="http://www.w3.org/2000/svg">
<path d="M25.2534 7.22668L18.3601 3.24001C17.0401 2.48001 14.9734 2.48001 13.6534 3.24001L6.69344 7.25335C3.93344 9.12001 3.77344 9.40001 3.77344 12.3733V19.6133C3.77344 22.5867 3.93344 22.88 6.74677 24.7733L13.6401 28.76C14.3068 29.1467 15.1601 29.3333 16.0001 29.3333C16.8401 29.3333 17.6934 29.1467 18.3468 28.76L25.3068 24.7467C28.0668 22.88 28.2268 22.6 28.2268 19.6267V12.3733C28.2268 9.40001 28.0668 9.12001 25.2534 7.22668ZM16.0001 20.3333C13.6134 20.3333 11.6668 18.3867 11.6668 16C11.6668 13.6133 13.6134 11.6667 16.0001 11.6667C18.3868 11.6667 20.3334 13.6133 20.3334 16C20.3334 18.3867 18.3868 20.3333 16.0001 20.3333Z" fill="#3B81F4"/>
</svg>
