<svg width="160" height="135" viewBox="0 0 160 135" fill="none" xmlns="http://www.w3.org/2000/svg">
<path d="M79.2376 119.78C112.485 119.78 139.395 92.9478 139.395 59.8418C139.395 26.7358 112.485 0 79.2376 0C46.0876 0 19.0801 26.8323 19.0801 59.9383C19.0801 93.0443 46.0876 119.78 79.2376 119.78Z" fill="#EAEEF9"/>
<path d="M107.988 119.557C98.8234 119.846 87.8059 119.557 80.0059 119.46C72.3034 119.75 61.1884 119.846 52.0234 119.557C61.0909 114.441 64.3084 104.886 64.6984 98.6123H95.1184C95.8009 104.79 99.0184 114.441 107.988 119.557Z" fill="#D5DDEA"/>
<g filter="url(#filter0_d_1814_17999)">
<path d="M137.434 18.6944V97.5504C137.434 99.5773 135.874 101.025 134.119 101.025H26.4791C24.6266 101.025 23.1641 99.4808 23.1641 97.5504V18.6944C23.1641 16.8605 24.7241 15.2197 26.4791 15.2197H133.924C135.972 15.3162 137.434 16.8605 137.434 18.6944Z" fill="white"/>
</g>
<path d="M137.434 18.6944V86.5473H23.1641V18.6944C23.1641 16.8605 24.7241 15.2197 26.4791 15.2197H133.924C135.972 15.3162 137.434 16.8605 137.434 18.6944Z" fill="#989FB0"/>
<path d="M137.057 18.1815V86.7148H23.0566V18.1815C23.0566 16.3148 24.6529 14.7148 26.3822 14.7148H133.598C135.593 14.7148 137.057 16.3148 137.057 18.1815Z" fill="#989FB0"/>
<path d="M132.923 19.7148H27.0566V82.7148H133.057V19.7148H132.923Z" fill="white"/>
<path d="M80.1029 96.2956C81.6629 96.2956 82.9304 95.1374 82.9304 93.4966C82.9304 91.9523 81.7604 90.6975 80.1029 90.6975C78.5429 90.6975 77.2754 91.8557 77.2754 93.4966C77.2754 95.0409 78.4454 96.2956 80.1029 96.2956Z" fill="#D6DDE8"/>
<path d="M1.03125 119.75H155.081" stroke="#D6DDE8" stroke-width="2" stroke-miterlimit="10" stroke-linecap="round" stroke-linejoin="round"/>
<path d="M11.8647 52.6992C14.1072 52.6992 15.8622 50.9619 15.8622 48.7419C15.8622 46.522 14.1072 44.7847 11.8647 44.7847C9.62219 44.7847 7.86719 46.522 7.86719 48.7419C7.86719 50.9619 9.71969 52.6992 11.8647 52.6992Z" fill="#EAEEF9"/>
<path d="M7.86672 39.8621C9.32922 39.8621 10.5967 38.6074 10.5967 37.1596C10.5967 35.7118 9.32922 34.457 7.86672 34.457C6.40422 34.457 5.13672 35.7118 5.13672 37.1596C5.13672 38.7039 6.40422 39.8621 7.86672 39.8621Z" fill="#EAEEF9"/>
<path d="M150.9 62.6405C153.728 62.6405 155.97 60.4206 155.97 57.6215C155.97 54.8225 153.728 52.6025 150.9 52.6025C148.073 52.6025 145.83 54.8225 145.83 57.6215C145.83 60.4206 148.073 62.6405 150.9 62.6405Z" fill="#EAEEF9"/>
<path d="M38.6664 45.5267C49.9744 45.5267 59.1414 36.452 59.1414 25.2578C59.1414 14.0635 49.9744 4.98877 38.6664 4.98877C27.3584 4.98877 18.1914 14.0635 18.1914 25.2578C18.1914 36.452 27.3584 45.5267 38.6664 45.5267Z" fill="url(#paint0_linear_1814_17999)"/>
<path d="M50.5732 24.2642C50.5732 23.106 49.5982 23.106 48.6232 23.0095C47.7457 22.913 47.6482 22.1408 47.2582 21.3687C46.5757 19.9209 49.2082 19.2453 47.8432 17.894C46.4782 16.5427 45.7957 15.481 44.7232 16.2532C44.0407 16.7358 43.5532 17.3149 42.7732 16.9288C41.9932 16.5427 41.2132 16.4462 41.1157 15.5775C40.8232 13.3576 40.6282 13.6472 37.6057 13.6472C35.7532 13.6472 37.0207 15.9636 35.5582 16.5427C34.6807 16.8323 34.0957 17.3149 33.4132 16.8323C31.5607 15.481 31.7557 15.7706 29.5132 17.894C28.7332 18.6661 29.3182 19.3418 30.0007 20.2104C30.4882 20.8861 30.0007 21.4652 29.7082 22.3339C29.2207 23.7816 26.7832 22.5269 26.7832 24.3608C26.7832 25.2294 26.7832 26.0981 26.8807 26.9668C27.2707 28.0285 28.1482 27.5459 29.0257 27.932H29.1232C29.1232 27.932 29.1232 27.932 29.2207 27.932C29.4157 28.0285 29.6107 28.318 29.7082 28.5111C29.7082 28.6076 29.8057 28.8972 29.9032 28.9937C30.1957 29.6693 30.4882 30.0554 30.0007 30.6345C28.7332 32.3718 28.9282 32.2753 31.0732 34.4953C32.3407 35.8465 33.2182 33.2405 34.5832 33.9161C35.1682 34.2057 35.9482 34.3987 36.1432 34.9778C36.3382 35.3639 36.2407 36.0396 36.5332 36.5222C36.9232 37.3908 38.2882 37.1013 39.7507 37.1013C41.6032 37.1013 40.3357 34.7848 41.7982 34.2057C43.5532 33.6266 43.1632 33.4335 44.6257 34.4953C45.6982 35.2674 46.5757 34.0127 47.7457 32.8544C49.1107 31.5032 46.4782 30.731 47.1607 29.3797C47.2582 29.0902 47.4532 28.8006 47.5507 28.5111C47.8432 27.7389 48.5257 27.7389 49.4032 27.6424C50.8657 27.4494 50.5732 26.0981 50.5732 24.2642ZM38.6782 29.4763C36.4357 29.4763 34.5832 27.6424 34.5832 25.4225C34.5832 23.2025 36.4357 21.3687 38.6782 21.3687C40.9207 21.3687 42.7732 23.2025 42.7732 25.4225C42.8707 27.6424 41.0182 29.4763 38.6782 29.4763Z" fill="white"/>
<path d="M53.4856 53.731H37.2031C34.4731 53.731 32.3281 55.8544 32.3281 58.5569V73.8069C32.3281 76.5094 34.4731 78.6329 37.2031 78.6329H53.3881C56.1181 78.6329 58.2631 76.5094 58.2631 73.8069V58.5569C58.3606 55.9509 56.1181 53.731 53.4856 53.731Z" fill="#EAEEF9"/>
<path d="M87.8061 45.1406H71.6211C68.8911 45.1406 66.7461 47.264 66.7461 49.9666V73.8068C66.7461 76.5093 68.8911 78.6327 71.6211 78.6327H87.8061C90.5361 78.6327 92.6811 76.5093 92.6811 73.8068V49.9666C92.6811 47.264 90.4386 45.1406 87.8061 45.1406Z" fill="#EAEEF9"/>
<path d="M122.224 3.73389H106.039C103.309 3.73389 101.164 5.8573 101.164 8.55984V73.8067C101.164 76.5092 103.309 78.6326 106.039 78.6326H122.224C124.954 78.6326 127.099 76.5092 127.099 73.8067V8.55984C127.099 5.8573 124.857 3.73389 122.224 3.73389Z" fill="#EAEEF9"/>
<defs>
<filter id="filter0_d_1814_17999" x="1.16406" y="4.21973" width="158.27" height="129.805" filterUnits="userSpaceOnUse" color-interpolation-filters="sRGB">
<feFlood flood-opacity="0" result="BackgroundImageFix"/>
<feColorMatrix in="SourceAlpha" type="matrix" values="0 0 0 0 0 0 0 0 0 0 0 0 0 0 0 0 0 0 127 0" result="hardAlpha"/>
<feOffset dy="11"/>
<feGaussianBlur stdDeviation="11"/>
<feColorMatrix type="matrix" values="0 0 0 0 0.397708 0 0 0 0 0.47749 0 0 0 0 0.575 0 0 0 0.27 0"/>
<feBlend mode="normal" in2="BackgroundImageFix" result="effect1_dropShadow_1814_17999"/>
<feBlend mode="normal" in="SourceGraphic" in2="effect1_dropShadow_1814_17999" result="shape"/>
</filter>
<linearGradient id="paint0_linear_1814_17999" x1="18.1727" y1="25.2622" x2="59.1489" y2="25.2622" gradientUnits="userSpaceOnUse">
<stop stop-color="#B0BACC"/>
<stop offset="1" stop-color="#969EAE"/>
</linearGradient>
</defs>
</svg>
