<svg width="24" height="24" viewBox="0 0 24 24" fill="none" xmlns="http://www.w3.org/2000/svg">
<path fill-rule="evenodd" clip-rule="evenodd" d="M1 12C1 5.92487 5.92487 1 12 1C18.0751 1 23 5.92487 23 12C23 18.0751 18.0751 23 12 23C5.92487 23 1 18.0751 1 12ZM16.6757 8.26285C17.0828 8.63604 17.1104 9.26861 16.7372 9.67573L11.2372 15.6757C11.0477 15.8824 10.7803 16 10.5 16C10.2197 16 9.95226 15.8824 9.76285 15.6757L7.26285 12.9485C6.88966 12.5413 6.91716 11.9088 7.32428 11.5356C7.7314 11.1624 8.36397 11.1899 8.73716 11.597L10.5 13.5201L15.2629 8.32428C15.636 7.91716 16.2686 7.88966 16.6757 8.26285Z" fill="#26BF56"/>
</svg>
