<svg width="25" height="24" viewBox="0 0 25 24" fill="none" xmlns="http://www.w3.org/2000/svg">
<path d="M14.5 2.92V11.23C14.5 12.25 13.67 13.08 12.65 13.08H3.5C2.95 13.08 2.5 12.63 2.5 12.08V5.69C2.5 3.65 4.15 2 6.19 2H13.57C14.09 2 14.5 2.41 14.5 2.92Z" fill="black"/>
<path d="M22 15.5C22.28 15.5 22.5 15.72 22.5 16V17C22.5 18.66 21.16 20 19.5 20C19.5 18.35 18.15 17 16.5 17C14.85 17 13.5 18.35 13.5 20H11.5C11.5 18.35 10.15 17 8.5 17C6.85 17 5.5 18.35 5.5 20C3.84 20 2.5 18.66 2.5 17V15C2.5 14.45 2.95 14 3.5 14H13C14.38 14 15.5 12.88 15.5 11.5V6C15.5 5.45 15.95 5 16.5 5H17.34C18.06 5 18.72 5.39 19.08 6.01L19.72 7.13C19.81 7.29 19.69 7.5 19.5 7.5C18.12 7.5 17 8.62 17 10V13C17 14.38 18.12 15.5 19.5 15.5H22Z" fill="black"/>
<path d="M8.5 22C9.60457 22 10.5 21.1046 10.5 20C10.5 18.8954 9.60457 18 8.5 18C7.39543 18 6.5 18.8954 6.5 20C6.5 21.1046 7.39543 22 8.5 22Z" fill="black"/>
<path d="M16.5 22C17.6046 22 18.5 21.1046 18.5 20C18.5 18.8954 17.6046 18 16.5 18C15.3954 18 14.5 18.8954 14.5 20C14.5 21.1046 15.3954 22 16.5 22Z" fill="black"/>
<path d="M22.5 12.53V14H19.5C18.95 14 18.5 13.55 18.5 13V10C18.5 9.45 18.95 9 19.5 9H20.79L22.24 11.54C22.41 11.84 22.5 12.18 22.5 12.53Z" fill="black"/>
</svg>
